<?xml version="1.0" encoding="utf-8"?>
<!-- Generator: Adobe Illustrator 17.0.0, SVG Export Plug-In . SVG Version: 6.00 Build 0)  -->
<!DOCTYPE svg PUBLIC "-//W3C//DTD SVG 1.1//EN" "http://www.w3.org/Graphics/SVG/1.1/DTD/svg11.dtd">
<svg version="1.1" xmlns="http://www.w3.org/2000/svg" xmlns:xlink="http://www.w3.org/1999/xlink" x="0px" y="0px" width="750px"
	 height="450px" viewBox="0 0 750 450" enable-background="new 0 0 750 450" xml:space="preserve">
<g id="图层_1">
	<path fill="none" stroke="#898989" stroke-width="2" stroke-linecap="round" stroke-miterlimit="10" d="M969.448,309.15
		c0-49.989,40.524-90.514,90.514-90.514c49.989,0,90.514,40.524,90.514,90.514"/>
	<path fill="none" stroke="#898989" stroke-width="6" stroke-linecap="round" stroke-miterlimit="10" d="M981.485,309.15
		c0-43.561,35.313-78.875,78.875-78.875s78.875,35.313,78.875,78.875"/>
	<path fill="none" stroke="#898989" stroke-width="2" stroke-linecap="round" stroke-miterlimit="10" d="M1150.475,309.15"/>
	<path fill="none" stroke="#E7A43D" stroke-width="2" stroke-linecap="round" stroke-miterlimit="10" d="M969.448,309.15
		c0-49.989,40.524-90.514,90.514-90.514"/>
	<path fill="none" stroke="#898989" stroke-width="6" stroke-linecap="round" stroke-miterlimit="10" d="M1139.234,309.15"/>
	<path fill="none" stroke="#E7A43D" stroke-width="6" stroke-linecap="round" stroke-miterlimit="10" d="M981.485,309.15
		c0-43.561,35.313-78.875,78.875-78.875"/>
	<rect x="0" y="0" fill="#FFFFFF" width="750" height="450"/>
	<path fill="none" stroke="#D52819" stroke-width="2" stroke-linecap="round" stroke-miterlimit="10" d="M969.448,309.15
		c0-37.108,22.33-69,54.286-82.973"/>
	<path fill="none" stroke="#D52819" stroke-width="2" stroke-linecap="round" stroke-miterlimit="10" d="M1023.734,226.177"/>
	<path fill="none" stroke="#D52819" stroke-width="2" stroke-linecap="round" stroke-miterlimit="10" d="M1016.893,229.52"/>
	<path fill="none" stroke="#E7A43D" stroke-width="2" stroke-linecap="round" stroke-miterlimit="10" d="M1016.893,229.52"/>
	<path fill="none" stroke="#E7A43D" stroke-width="2" stroke-linecap="round" stroke-miterlimit="10" d="M1016.174,229.913"/>
	<path fill="none" stroke="#E7A43D" stroke-width="2" stroke-linecap="round" stroke-miterlimit="10" d="M969.448,309.15
		c0-34.106,18.863-63.806,46.726-79.236"/>
	<path fill="none" stroke="#E7A43D" stroke-width="6" stroke-linecap="round" stroke-miterlimit="10" d="M1028.879,236.808"/>
	<path fill="none" stroke="#E7A43D" stroke-width="6" stroke-linecap="round" stroke-miterlimit="10" d="M981.485,309.15"/>
	<path fill="none" stroke="#D52819" stroke-width="6" stroke-linecap="round" stroke-miterlimit="10" d="M981.485,309.15
		c0-32.371,19.383-60.359,47.277-72.514"/>
	<path fill="none" stroke="#E7A43D" stroke-width="6" stroke-linecap="round" stroke-miterlimit="10" d="M1021.54,240.473"/>
	<path fill="none" stroke="#E7A43D" stroke-width="6" stroke-linecap="round" stroke-miterlimit="10" d="M1020.504,241.071"/>
	<path fill="none" stroke="#E7A43D" stroke-width="6" stroke-linecap="round" stroke-miterlimit="10" d="M981.485,309.15
		c0-29.022,15.869-54.708,38.806-68.192"/>
	
		<line fill="none" stroke="#F39800" stroke-linecap="round" stroke-miterlimit="10" x1="995.055" y1="309.214" x2="987.179" y2="309.206"/>
	
		<line fill="none" stroke="#F39800" stroke-linecap="round" stroke-miterlimit="10" x1="1014.141" y1="262.288" x2="1008.661" y2="256.542"/>
	
		<line fill="none" stroke="#D52819" stroke-linecap="round" stroke-miterlimit="10" x1="1026.243" y1="252.589" x2="1022.242" y2="245.698"/>
	
		<line fill="none" stroke="#F39800" stroke-linecap="round" stroke-miterlimit="10" x1="1060.36" y1="242.814" x2="1060.36" y2="234.815"/>
	
		<line fill="none" stroke="#F39800" stroke-linecap="round" stroke-miterlimit="10" x1="1106.509" y1="262.199" x2="1112.167" y2="256.633"/>
	
		<line fill="none" stroke="#D52819" stroke-linecap="round" stroke-miterlimit="10" x1="1125.683" y1="309.214" x2="1133.559" y2="309.214"/>
	
		<line fill="none" stroke="#F39800" stroke-width="2" stroke-linecap="round" stroke-miterlimit="10" x1="1060.36" y1="277.442" x2="1060.36" y2="296.972"/>
	
		<line fill="none" stroke="#F39800" stroke-width="0.5" stroke-linecap="round" stroke-miterlimit="10" x1="1060.36" y1="233.514" x2="1060.36" y2="277.442"/>
	
		<circle fill="none" stroke="#898989" stroke-width="3" stroke-linecap="round" stroke-miterlimit="10" cx="1059.962" cy="309.15" r="12.178"/>
	<text transform="matrix(1 0 0 1 997.3539 312.0249)" fill="#E7A43D" font-family="'MicrosoftYaHei'" font-size="6">0月</text>
	<text transform="matrix(1 0 0 1 1110.6783 312.0249)" fill="#898A89" font-family="'MicrosoftYaHei'" font-size="6">40月</text>
	<g>
		<text transform="matrix(1 0 0 1 1052.3568 311.2571)" fill="#E7A43D" font-family="'MicrosoftYaHei'" font-size="7">20月</text>
	</g>
	<text transform="matrix(1 0 0 1 1011.4001 269.7124)" fill="#E7A43D" font-family="'MicrosoftYaHei'" font-size="6">10月</text>
	<text transform="matrix(1 0 0 1 1023.7344 259.4156)" fill="#E7A43D" font-family="'MicrosoftYaHei'" font-size="6">13月</text>
	<text transform="matrix(1 0 0 1 1052.4845 250.4156)" fill="#E7A43D" font-family="'MicrosoftYaHei'" font-size="6">20月</text>
	<text transform="matrix(1 0 0 1 1097.7345 269.7124)" fill="#898A89" font-family="'MicrosoftYaHei'" font-size="6">30月</text>
	<g>
		<path fill="#898989" d="M680.549,359.751c-1.864,0-3.376-1.512-3.376-3.376c0-166.618-135.555-302.173-302.173-302.173
			S72.827,189.757,72.827,356.375c0,1.864-1.511,3.376-3.376,3.376s-3.376-1.512-3.376-3.376
			C66.076,186.033,204.658,47.451,375,47.451s308.924,138.582,308.924,308.924C683.924,358.239,682.413,359.751,680.549,359.751z"/>
	</g>
	<g>
		<path fill="#898989" d="M642.601,366.502c-5.593,0-10.127-4.534-10.127-10.127c0-141.231-114.9-256.131-256.131-256.131
			s-256.133,114.9-256.133,256.131c0,5.593-4.534,10.127-10.127,10.127s-10.127-4.534-10.127-10.127
			c0-152.4,123.987-276.385,276.387-276.385s276.385,123.985,276.385,276.385C652.729,361.968,648.194,366.502,642.601,366.502z"/>
	</g>
	<g>
		<path fill="none" stroke="#898989" stroke-width="2" stroke-linecap="round" stroke-miterlimit="10" d="M680.548,356.375"/>
	</g>
	<g>
		<path fill="#E7A43D" d="M69.451,359.751c-1.864,0-3.376-1.512-3.376-3.376C66.076,186.033,204.658,47.451,375,47.451
			c1.864,0,3.376,1.511,3.376,3.376c0,1.864-1.512,3.376-3.376,3.376c-166.618,0-302.173,135.555-302.173,302.173
			C72.827,358.239,71.316,359.751,69.451,359.751z"/>
	</g>
	<g>
		<path fill="none" stroke="#898989" stroke-width="6" stroke-linecap="round" stroke-miterlimit="10" d="M642.602,356.375"/>
	</g>
	<g>
		<path fill="#E7A43D" d="M110.084,366.502c-5.593,0-10.127-4.534-10.127-10.127c0-152.4,123.987-276.385,276.387-276.385
			c5.593,0,10.127,4.534,10.127,10.127c0,5.593-4.534,10.127-10.127,10.127c-141.231,0-256.133,114.9-256.133,256.131
			C120.211,361.968,115.676,366.502,110.084,366.502z"/>
	</g>
	<g>
		<path fill="#D52819" d="M69.451,359.751c-1.864,0-3.376-1.512-3.376-3.376c0-122.816,72.726-233.974,185.279-283.184
			c1.706-0.748,3.699,0.031,4.444,1.741c0.748,1.708-0.031,3.697-1.741,4.444c-110.093,48.137-181.231,156.865-181.231,277
			C72.827,358.239,71.316,359.751,69.451,359.751z"/>
	</g>
	<g>
		<path fill="none" stroke="#D52819" stroke-width="2" stroke-linecap="round" stroke-miterlimit="10" d="M252.706,76.283"/>
	</g>
	<g>
		<path fill="none" stroke="#D52819" stroke-width="2" stroke-linecap="round" stroke-miterlimit="10" d="M229.611,87.567"/>
	</g>
	<g>
		<path fill="none" stroke="#E7A43D" stroke-width="2" stroke-linecap="round" stroke-miterlimit="10" d="M229.611,87.567"/>
	</g>
	<g>
		<path fill="none" stroke="#E7A43D" stroke-width="2" stroke-linecap="round" stroke-miterlimit="10" d="M227.186,88.896"/>
	</g>
	<g>
		<path fill="#E7A43D" d="M69.451,359.751c-1.864,0-3.376-1.512-3.376-3.376c0-112.333,61.107-215.957,159.475-270.433
			c1.633-0.9,3.686-0.31,4.589,1.319c0.903,1.63,0.313,3.686-1.319,4.589C132.601,145.136,72.827,246.496,72.827,356.375
			C72.827,358.239,71.316,359.751,69.451,359.751z"/>
	</g>
	<g>
		<path fill="none" stroke="#E7A43D" stroke-width="6" stroke-linecap="round" stroke-miterlimit="10" d="M270.074,112.169"/>
	</g>
	<g>
		<path fill="none" stroke="#E7A43D" stroke-width="6" stroke-linecap="round" stroke-miterlimit="10" d="M110.084,356.375"/>
	</g>
	<g>
		<path fill="#D52819" d="M110.084,366.502c-5.593,0-10.127-4.534-10.127-10.127c0-110.484,65.032-210.213,165.676-254.069
			c5.131-2.237,11.095,0.112,13.328,5.238c2.235,5.126-0.11,11.095-5.238,13.328c-93.254,40.639-153.511,133.079-153.511,235.502
			C120.211,361.968,115.676,366.502,110.084,366.502z"/>
	</g>
	<g>
		<path fill="none" stroke="#E7A43D" stroke-width="6" stroke-linecap="round" stroke-miterlimit="10" d="M245.3,124.543"/>
	</g>
	<g>
		<path fill="none" stroke="#E7A43D" stroke-width="6" stroke-linecap="round" stroke-miterlimit="10" d="M241.802,126.56"/>
	</g>
	<g>
		<path fill="#E7A43D" d="M110.084,366.502c-5.593,0-10.127-4.534-10.127-10.127c0-98.062,52.109-189.614,135.993-238.929
			c4.825-2.832,11.029-1.223,13.864,3.598c2.833,4.821,1.223,11.029-3.598,13.864c-77.722,45.691-126.004,130.552-126.004,221.467
			C120.211,361.968,115.676,366.502,110.084,366.502z"/>
	</g>
	<g>
		<path fill="#F39800" d="M155.892,358.279h-0.002l-26.587-0.025c-0.933-0.002-1.688-0.757-1.686-1.69
			c0.002-0.931,0.757-1.686,1.688-1.686h0.002l26.587,0.025c0.933,0.002,1.688,0.757,1.686,1.69
			C157.578,357.524,156.823,358.279,155.892,358.279z"/>
	</g>
	<g>
		<path fill="#F39800" d="M220.32,199.872c-0.445,0-0.89-0.175-1.221-0.523L200.6,179.951c-0.643-0.676-0.618-1.744,0.056-2.387
			c0.676-0.643,1.744-0.62,2.387,0.056l18.499,19.399c0.643,0.676,0.618,1.744-0.056,2.387
			C221.158,199.718,220.739,199.872,220.32,199.872z"/>
	</g>
	<g>
		<path fill="#D52819" d="M261.177,167.129c-0.582,0-1.149-0.302-1.462-0.841l-13.506-23.262c-0.468-0.806-0.193-1.84,0.613-2.308
			c0.809-0.465,1.841-0.19,2.308,0.613l13.506,23.262c0.468,0.806,0.193,1.84-0.613,2.308
			C261.755,167.055,261.463,167.129,261.177,167.129z"/>
	</g>
	<g>
		<path fill="#F39800" d="M376.343,134.133c-0.933,0-1.688-0.755-1.688-1.688v-27.002c0-0.933,0.755-1.688,1.688-1.688
			c0.933,0,1.688,0.755,1.688,1.688v27.002C378.031,133.378,377.276,134.133,376.343,134.133z"/>
	</g>
	<g>
		<path fill="#F39800" d="M532.129,199.569c-0.437,0-0.874-0.168-1.203-0.504c-0.654-0.664-0.644-1.732,0.02-2.387l19.101-18.787
			c0.663-0.654,1.734-0.646,2.387,0.02c0.654,0.664,0.644,1.732-0.02,2.387l-19.101,18.787
			C532.985,199.408,532.556,199.569,532.129,199.569z"/>
	</g>
	<g>
		<path fill="#D52819" d="M623.442,358.279h-26.585c-0.933,0-1.688-0.755-1.688-1.688c0-0.933,0.755-1.688,1.688-1.688h26.585
			c0.933,0,1.688,0.755,1.688,1.688C625.129,357.524,624.375,358.279,623.442,358.279z"/>
	</g>
	<g>
		<path fill="#F39800" d="M376.343,318.642c-1.864,0-3.376-1.511-3.376-3.376v-65.929c0-1.864,1.511-3.376,3.376-3.376
			s3.376,1.511,3.376,3.376v65.929C379.719,317.131,378.208,318.642,376.343,318.642z"/>
	</g>
	<g>
		<path fill="#F39800" d="M376.343,250.182c-0.466,0-0.844-0.377-0.844-0.844V101.052c0-0.466,0.377-0.844,0.844-0.844
			c0.466,0,0.844,0.377,0.844,0.844v148.286C377.187,249.804,376.81,250.182,376.343,250.182z"/>
	</g>
	<g>
		<path fill="#898989" d="M375.002,402.549c-0.049,0-0.097,0-0.148,0c-25.458-0.081-46.106-20.861-46.027-46.321
			c0.081-25.409,20.78-46.025,46.171-46.025c0.051,0,0.099,0,0.15,0c12.333,0.038,23.912,4.877,32.605,13.626
			c8.693,8.749,13.46,20.358,13.42,32.692c-0.038,12.333-4.877,23.912-13.626,32.605
			C398.833,397.785,387.28,402.549,375.002,402.549z M374.997,320.33c-19.822,0-35.981,16.094-36.043,35.931
			c-0.063,19.875,16.058,36.096,35.933,36.16c0.038,0,0.077,0,0.115,0c9.585,0,18.603-3.719,25.405-10.478
			c6.831-6.786,10.608-15.827,10.638-25.455l0,0c0.031-9.628-3.691-18.692-10.477-25.521c-6.786-6.831-15.827-10.608-25.455-10.638
			C375.076,320.33,375.036,320.33,374.997,320.33z"/>
	</g>
	<g>
		<path fill="#E7A43D" d="M164.553,358.724c0-2.703,0.448-4.749,1.345-6.137c0.897-1.388,2.196-2.082,3.897-2.082
			c3.244,0,4.866,2.618,4.866,7.853c0,2.585-0.457,4.561-1.37,5.929c-0.913,1.368-2.194,2.052-3.842,2.052
			c-1.556,0-2.761-0.649-3.615-1.948S164.553,361.203,164.553,358.724z M166.531,358.635c0,4.068,1.032,6.102,3.096,6.102
			c2.031,0,3.046-2.067,3.046-6.201c0-4.279-0.996-6.418-2.987-6.418C167.583,352.118,166.531,354.29,166.531,358.635z"/>
		<path fill="#E7A43D" d="M180.604,362.017c-0.297,2.545-1.289,4.846-2.977,6.903c-0.422-0.409-0.877-0.804-1.365-1.187
			c1.279-1.385,2.136-3.033,2.571-4.945c0.303-1.411,0.455-3.363,0.455-5.855v-6.844h13.213v15.428c0,1.952-0.93,2.927-2.789,2.927
			c-0.778,0-1.78-0.013-3.007-0.04c-0.066-0.475-0.165-1.029-0.297-1.661c1.213,0.079,2.169,0.119,2.868,0.119
			c1.068,0,1.602-0.521,1.602-1.563v-3.283H180.604z M180.763,360.573h10.117v-3.798h-9.969
			C180.911,358.094,180.862,359.36,180.763,360.573z M180.911,351.574v3.758h9.969v-3.758H180.911z"/>
	</g>
	<g>
		<path fill="#898A89" d="M557.36,362.106h-1.958v3.976h-1.879v-3.976h-7.14v-1.256l6.775-10.088h2.245v9.811h1.958V362.106z
			 M553.522,360.573v-6.418c0-0.455,0.013-0.979,0.04-1.572h-0.04c-0.092,0.251-0.287,0.643-0.583,1.177l-4.559,6.814H553.522z"/>
		<path fill="#898A89" d="M558.982,358.724c0-2.703,0.448-4.749,1.345-6.137c0.897-1.388,2.195-2.082,3.897-2.082
			c3.244,0,4.866,2.618,4.866,7.853c0,2.585-0.457,4.561-1.37,5.929c-0.913,1.368-2.194,2.052-3.842,2.052
			c-1.556,0-2.761-0.649-3.615-1.948S558.982,361.203,558.982,358.724z M560.96,358.635c0,4.068,1.032,6.102,3.095,6.102
			c2.031,0,3.046-2.067,3.046-6.201c0-4.279-0.996-6.418-2.987-6.418C562.011,352.118,560.96,354.29,560.96,358.635z"/>
		<path fill="#898A89" d="M575.033,362.017c-0.297,2.545-1.289,4.846-2.977,6.903c-0.422-0.409-0.877-0.804-1.365-1.187
			c1.279-1.385,2.136-3.033,2.571-4.945c0.303-1.411,0.455-3.363,0.455-5.855v-6.844h13.213v15.428c0,1.952-0.93,2.927-2.789,2.927
			c-0.778,0-1.78-0.013-3.006-0.04c-0.066-0.475-0.165-1.029-0.297-1.661c1.213,0.079,2.169,0.119,2.868,0.119
			c1.068,0,1.602-0.521,1.602-1.563v-3.283H575.033z M575.191,360.573h10.117v-3.798h-9.969
			C575.339,358.094,575.29,359.36,575.191,360.573z M575.339,351.574v3.758h9.969v-3.758H575.339z"/>
	</g>
	<g>
		<path fill="#E7A43D" d="M362.42,364.489h-10.869v-1.961l5.192-5.181c1.431-1.431,2.388-2.563,2.873-3.397
			c0.485-0.836,0.727-1.699,0.727-2.591c0-1.015-0.285-1.793-0.854-2.337c-0.569-0.541-1.393-0.813-2.469-0.813
			c-1.592,0-3.112,0.677-4.558,2.031v-2.296c1.408-1.085,3.046-1.627,4.915-1.627c1.607,0,2.876,0.435,3.808,1.304
			c0.931,0.869,1.396,2.039,1.396,3.508c0,1.108-0.298,2.194-0.893,3.26c-0.597,1.065-1.726,2.42-3.387,4.066l-4.073,3.981v0.046
			h8.192V364.489z"/>
		<path fill="#E7A43D" d="M365.235,355.905c0-3.153,0.523-5.54,1.569-7.16c1.047-1.619,2.561-2.428,4.546-2.428
			c3.784,0,5.677,3.054,5.677,9.161c0,3.015-0.532,5.321-1.597,6.918c-1.066,1.596-2.56,2.393-4.483,2.393
			c-1.815,0-3.221-0.758-4.216-2.273C365.733,361.001,365.235,358.798,365.235,355.905z M367.543,355.801
			c0,4.745,1.203,7.119,3.611,7.119c2.369,0,3.554-2.411,3.554-7.234c0-4.993-1.162-7.488-3.484-7.488
			C368.769,348.198,367.543,350.733,367.543,355.801z"/>
		<path fill="#E7A43D" d="M383.961,359.747c-0.346,2.969-1.503,5.654-3.473,8.054c-0.493-0.476-1.024-0.938-1.592-1.385
			c1.492-1.615,2.492-3.539,3-5.769c0.354-1.647,0.531-3.923,0.531-6.831v-7.984h15.415v17.999c0,2.276-1.085,3.415-3.254,3.415
			c-0.908,0-2.077-0.015-3.508-0.046c-0.077-0.554-0.193-1.2-0.346-1.938c1.416,0.092,2.53,0.138,3.346,0.138
			c1.246,0,1.869-0.608,1.869-1.823v-3.831H383.961z M384.146,358.063h11.803v-4.431h-11.63
			C384.319,355.17,384.261,356.647,384.146,358.063z M384.319,347.563v4.384h11.63v-4.384H384.319z"/>
	</g>
	<g>
		<path fill="#E7A43D" d="M221.72,223.247h-8.782v-1.671h3.432v-11.63l-3.521,1.019v-1.78l5.449-1.582v13.974h3.422V223.247z"/>
		<path fill="#E7A43D" d="M223.846,215.889c0-2.703,0.448-4.749,1.345-6.137c0.897-1.388,2.196-2.082,3.897-2.082
			c3.244,0,4.866,2.617,4.866,7.852c0,2.585-0.455,4.561-1.368,5.929s-2.196,2.052-3.844,2.052c-1.556,0-2.759-0.649-3.613-1.948
			S223.846,218.368,223.846,215.889z M225.824,215.8c0,4.068,1.032,6.102,3.096,6.102c2.031,0,3.046-2.067,3.046-6.201
			c0-4.279-0.996-6.418-2.987-6.418C226.876,209.283,225.824,211.455,225.824,215.8z"/>
		<path fill="#E7A43D" d="M239.897,219.182c-0.297,2.545-1.289,4.846-2.977,6.903c-0.422-0.409-0.877-0.804-1.365-1.187
			c1.279-1.385,2.136-3.033,2.571-4.945c0.303-1.411,0.455-3.363,0.455-5.855v-6.844h13.213v15.428c0,1.952-0.93,2.927-2.789,2.927
			c-0.778,0-1.78-0.013-3.007-0.04c-0.066-0.475-0.165-1.029-0.297-1.661c1.213,0.079,2.169,0.119,2.868,0.119
			c1.068,0,1.602-0.521,1.602-1.563v-3.283H239.897z M240.055,217.738h10.117v-3.798h-9.969
			C240.204,215.259,240.154,216.525,240.055,217.738z M240.204,208.739v3.758h9.969v-3.758H240.204z"/>
	</g>
	<g>
		<path fill="#D52819" d="M263.357,188.488h-8.782v-1.671h3.432v-11.63l-3.521,1.019v-1.78l5.449-1.582v13.974h3.422V188.488z"/>
		<path fill="#D52819" d="M265.998,185.926c1.048,0.811,2.232,1.216,3.55,1.216c1.055,0,1.891-0.259,2.507-0.776
			s0.925-1.212,0.925-2.082c0-1.938-1.388-2.908-4.164-2.908h-1.276v-1.602h1.216c2.459,0,3.689-0.91,3.689-2.73
			c0-1.681-0.94-2.522-2.819-2.522c-1.075,0-2.087,0.363-3.036,1.088v-1.83c1.002-0.58,2.172-0.87,3.511-0.87
			c1.305,0,2.354,0.341,3.145,1.024c0.791,0.682,1.187,1.568,1.187,2.655c0,2.004-1.022,3.293-3.066,3.867v0.04
			c1.108,0.119,1.983,0.509,2.626,1.172c0.643,0.663,0.964,1.488,0.964,2.477c0,1.378-0.496,2.489-1.488,3.333
			s-2.313,1.266-3.961,1.266c-1.451,0-2.621-0.27-3.511-0.811V185.926z"/>
		<path fill="#D52819" d="M281.535,184.423c-0.297,2.545-1.289,4.846-2.977,6.903c-0.422-0.409-0.877-0.804-1.365-1.187
			c1.279-1.385,2.136-3.033,2.571-4.945c0.303-1.411,0.455-3.363,0.455-5.855v-6.844h13.213v15.428c0,1.952-0.93,2.927-2.789,2.927
			c-0.778,0-1.78-0.013-3.007-0.04c-0.066-0.475-0.165-1.029-0.297-1.661c1.213,0.079,2.169,0.119,2.868,0.119
			c1.068,0,1.602-0.521,1.602-1.563v-3.283H281.535z M281.693,182.979h10.117v-3.798h-9.969
			C281.841,180.5,281.792,181.766,281.693,182.979z M281.841,173.979v3.758h9.969v-3.758H281.841z"/>
	</g>
	<g>
		<path fill="#E7A43D" d="M360.122,158.106h-9.316v-1.681l4.45-4.441c1.226-1.226,2.047-2.197,2.463-2.913s0.623-1.455,0.623-2.22
			c0-0.87-0.244-1.538-0.732-2.003c-0.488-0.465-1.193-0.697-2.116-0.697c-1.365,0-2.667,0.58-3.906,1.741v-1.968
			c1.207-0.93,2.611-1.394,4.213-1.394c1.378,0,2.466,0.373,3.264,1.118c0.798,0.745,1.197,1.747,1.197,3.006
			c0,0.949-0.255,1.881-0.766,2.794c-0.511,0.913-1.479,2.075-2.903,3.486l-3.491,3.412v0.04h7.022V158.106z"/>
		<path fill="#E7A43D" d="M362.536,150.748c0-2.703,0.448-4.749,1.345-6.137c0.897-1.388,2.196-2.082,3.897-2.082
			c3.244,0,4.866,2.617,4.866,7.852c0,2.585-0.457,4.561-1.37,5.929s-2.194,2.052-3.842,2.052c-1.556,0-2.761-0.649-3.615-1.948
			C362.962,155.116,362.536,153.227,362.536,150.748z M364.514,150.659c0,4.068,1.032,6.102,3.096,6.102
			c2.031,0,3.046-2.067,3.046-6.201c0-4.279-0.996-6.418-2.987-6.418C365.565,144.142,364.514,146.314,364.514,150.659z"/>
		<path fill="#E7A43D" d="M378.587,154.042c-0.297,2.545-1.289,4.846-2.977,6.903c-0.422-0.409-0.877-0.804-1.365-1.187
			c1.279-1.385,2.136-3.033,2.571-4.945c0.303-1.411,0.455-3.363,0.455-5.855v-6.844h13.213v15.428c0,1.952-0.93,2.927-2.789,2.927
			c-0.778,0-1.78-0.013-3.007-0.04c-0.066-0.475-0.165-1.029-0.297-1.661c1.213,0.079,2.169,0.119,2.868,0.119
			c1.068,0,1.602-0.521,1.602-1.563v-3.283H378.587z M378.745,152.598h10.117V148.8h-9.969
			C378.893,150.119,378.844,151.384,378.745,152.598z M378.893,143.598v3.758h9.969v-3.758H378.893z"/>
	</g>
	<g>
		<path fill="#898A89" d="M503.923,220.686c1.048,0.811,2.232,1.216,3.55,1.216c1.055,0,1.891-0.259,2.507-0.776
			c0.616-0.518,0.925-1.212,0.925-2.082c0-1.938-1.388-2.908-4.164-2.908h-1.276v-1.602h1.216c2.459,0,3.689-0.91,3.689-2.73
			c0-1.681-0.94-2.522-2.819-2.522c-1.075,0-2.087,0.363-3.036,1.088v-1.83c1.002-0.58,2.172-0.87,3.511-0.87
			c1.305,0,2.354,0.341,3.145,1.024c0.791,0.682,1.187,1.568,1.187,2.655c0,2.004-1.022,3.293-3.066,3.867v0.04
			c1.108,0.119,1.983,0.509,2.626,1.172c0.643,0.663,0.964,1.488,0.964,2.477c0,1.378-0.496,2.489-1.488,3.333
			c-0.992,0.844-2.313,1.266-3.961,1.266c-1.451,0-2.621-0.27-3.511-0.811V220.686z"/>
		<path fill="#898A89" d="M515.287,215.889c0-2.703,0.448-4.749,1.345-6.137c0.897-1.388,2.196-2.082,3.897-2.082
			c3.244,0,4.866,2.617,4.866,7.852c0,2.585-0.457,4.561-1.37,5.929s-2.194,2.052-3.842,2.052c-1.556,0-2.761-0.649-3.615-1.948
			S515.287,218.368,515.287,215.889z M517.265,215.8c0,4.068,1.032,6.102,3.095,6.102c2.031,0,3.046-2.067,3.046-6.201
			c0-4.279-0.996-6.418-2.987-6.418C518.316,209.283,517.265,211.455,517.265,215.8z"/>
		<path fill="#898A89" d="M531.338,219.182c-0.297,2.545-1.289,4.846-2.977,6.903c-0.422-0.409-0.877-0.804-1.365-1.187
			c1.279-1.385,2.136-3.033,2.571-4.945c0.303-1.411,0.455-3.363,0.455-5.855v-6.844h13.213v15.428c0,1.952-0.93,2.927-2.789,2.927
			c-0.778,0-1.78-0.013-3.006-0.04c-0.066-0.475-0.165-1.029-0.297-1.661c1.213,0.079,2.169,0.119,2.868,0.119
			c1.068,0,1.602-0.521,1.602-1.563v-3.283H531.338z M531.496,217.738h10.117v-3.798h-9.969
			C531.645,215.259,531.595,216.525,531.496,217.738z M531.645,208.739v3.758h9.969v-3.758H531.645z"/>
	</g>
</g>
<g id="图层_2">
</g>
</svg>
